<?xml version="1.0" standalone="no"?>
<!DOCTYPE svg PUBLIC "-//W3C//DTD SVG 20010904//EN"
 "http://www.w3.org/TR/2001/REC-SVG-20010904/DTD/svg10.dtd">
<svg version="1.0" xmlns="http://www.w3.org/2000/svg"
 width="1024.000000pt" height="1024.000000pt" viewBox="0 0 1024.000000 1024.000000"
 preserveAspectRatio="xMidYMid meet">

<g transform="translate(0.000000,1024.000000) scale(0.100000,-0.100000)"
fill="#000000" stroke="none">
<path d="M5025 9024 c-79 -23 -163 -58 -395 -169 -146 -69 -350 -160 -454
-203 -205 -82 -264 -118 -283 -172 -17 -50 -16 -336 2 -472 39 -295 141 -517
319 -694 79 -78 361 -304 433 -346 l36 -22 -54 -25 c-101 -47 -474 -233 -559
-279 -259 -140 -418 -278 -562 -490 -59 -87 -118 -207 -118 -241 0 -22 1 -23
18 -8 26 24 87 47 122 47 20 0 33 6 37 18 9 24 79 126 131 192 77 97 232 222
363 294 l67 37 6 -113 c15 -258 29 -414 38 -425 6 -7 18 -13 27 -13 9 0 34
-15 56 -32 37 -31 55 -50 118 -123 14 -16 28 -27 32 -23 7 6 -19 434 -35 578
-5 47 -12 128 -15 180 l-6 95 201 97 c110 54 200 95 200 91 0 -4 -16 -44 -35
-89 -61 -142 -78 -222 -78 -369 0 -140 14 -264 39 -333 18 -48 16 -48 119 -4
90 39 162 91 243 176 95 100 164 207 181 279 8 31 17 54 21 52 4 -3 13 -25 19
-51 25 -98 90 -200 188 -296 95 -92 299 -209 338 -194 29 11 38 61 42 246 6
254 -16 349 -121 508 -19 28 -32 52 -28 52 4 0 35 -17 68 -38 34 -20 107 -59
163 -87 72 -35 103 -56 106 -70 2 -11 13 -92 25 -180 19 -142 62 -382 120
-664 11 -52 17 -97 14 -100 -3 -3 -342 -7 -752 -9 l-747 -3 70 -34 c193 -95
451 -331 591 -540 122 -182 170 -271 229 -424 65 -168 125 -454 125 -594 0
-47 6 -75 23 -106 39 -72 98 -144 158 -194 73 -60 140 -152 179 -247 17 -40
30 -77 30 -82 0 -13 -164 -88 -208 -95 -22 -4 -61 -25 -97 -53 -33 -26 -87
-65 -121 -88 -87 -58 -124 -103 -124 -151 0 -55 11 -102 25 -107 6 -3 76 36
154 86 79 50 145 89 148 87 14 -15 -104 -174 -217 -292 -116 -120 -120 -127
-120 -203 0 -179 -54 -435 -111 -523 -16 -25 -29 -51 -29 -57 0 -18 91 -14
220 9 181 33 480 37 697 10 92 -12 201 -28 241 -35 40 -7 75 -9 77 -6 2 4 0
71 -5 151 -5 79 -10 389 -11 688 l-3 545 129 46 c151 54 202 79 345 168 164
102 229 158 376 323 16 19 45 61 64 94 103 185 123 258 123 445 0 280 -50 432
-256 785 -38 66 -91 154 -117 195 -26 41 -80 129 -121 195 -127 208 -339 527
-400 601 -74 91 -182 191 -307 286 -185 140 -532 343 -715 419 -94 39 -111 52
-80 63 55 21 155 93 200 145 99 112 152 221 199 413 25 100 28 133 29 283 1
99 7 196 14 233 20 93 9 344 -18 440 -24 83 -68 176 -115 241 -75 105 -269
227 -411 256 -71 15 -471 29 -510 19z m48 -201 c-108 -107 -142 -152 -196
-258 -78 -155 -101 -296 -100 -610 1 -304 37 -518 119 -704 28 -63 30 -72 8
-45 -15 18 -15 17 -10 -16 l6 -34 -25 34 c-13 19 -35 48 -47 64 -47 59 -98
142 -134 216 l-36 76 -46 3 c-25 1 -49 4 -53 6 -4 3 -6 -6 -5 -19 0 -13 4 -22
9 -19 4 2 7 -7 7 -21 0 -14 -2 -26 -5 -26 -3 0 -21 32 -41 72 -32 63 -65 177
-118 403 -26 109 -83 152 -145 109 -22 -16 -23 -21 -18 -103 10 -171 69 -397
137 -531 30 -58 25 -57 -32 6 -215 234 -276 410 -304 876 l-6 107 53 24 c157
71 237 105 259 112 14 4 108 47 210 96 179 85 240 109 240 94 0 -3 -5 -16 -10
-28 -8 -17 -7 -16 7 3 28 41 115 120 163 148 42 25 152 60 193 61 12 1 -17
-34 -80 -96z m305 -87 c-5 -106 -37 -176 -111 -242 -54 -49 -174 -112 -232
-121 l-34 -5 24 75 c34 111 82 194 151 265 60 60 147 112 188 112 17 0 18 -7
14 -84z m275 43 c60 -31 117 -79 165 -142 23 -29 42 -57 42 -60 0 -13 -204
119 -237 152 -32 33 -44 71 -23 71 6 0 30 -10 53 -21z m-82 -231 c24 -24 98
-72 162 -108 179 -98 180 -100 194 -150 12 -49 17 -163 7 -173 -4 -3 -19 0
-35 8 -35 18 -71 5 -88 -32 -17 -37 -14 -49 30 -145 23 -50 42 -104 43 -121
l1 -32 -108 -5 c-93 -4 -111 -8 -123 -24 -27 -37 -15 -80 27 -101 36 -19 120
-19 164 -1 l35 15 0 -32 c0 -18 -5 -49 -10 -69 -10 -36 -11 -37 -76 -44 -71
-7 -234 2 -283 16 -36 10 -66 -8 -73 -45 -7 -33 14 -60 65 -87 37 -20 57 -23
175 -23 120 0 132 -2 132 -18 0 -51 -81 -152 -150 -187 -163 -83 -380 -76
-506 16 -64 47 -142 243 -169 424 -8 52 -20 183 -27 291 -12 208 -9 229 31
229 25 0 212 93 279 139 75 51 206 192 235 253 12 26 22 47 23 48 0 0 20 -19
45 -42z m-617 -1412 c17 -33 12 -52 -16 -67 -18 -10 -19 -9 -4 13 19 29 11 69
-12 60 -14 -5 -15 -3 -5 10 7 8 11 17 9 20 -1 3 1 3 5 -1 4 -3 14 -19 23 -35z
m317 -163 c38 -35 41 -40 34 -77 -8 -53 -39 -86 -80 -86 -40 0 -78 29 -111 86
-44 75 -20 112 73 113 36 1 50 -5 84 -36z m-260 -205 c12 -24 35 -59 51 -79
33 -41 33 -62 -4 -179 -33 -106 -79 -172 -171 -245 l-82 -66 -8 73 c-19 191
39 395 146 506 17 17 34 32 39 32 4 0 17 -19 29 -42z m502 -44 c62 -76 113
-181 132 -269 17 -81 20 -235 5 -235 -16 0 -94 75 -140 135 -45 58 -91 158
-115 250 -14 56 -14 59 10 104 13 25 26 54 29 64 9 28 26 17 79 -49z m966
-458 c180 -175 323 -379 704 -1006 154 -254 239 -441 272 -595 25 -114 25
-310 0 -395 -71 -252 -214 -411 -515 -572 -69 -37 -289 -118 -321 -118 -4 0
-15 24 -24 53 -29 88 -95 228 -142 302 -51 79 -164 199 -235 252 -27 19 -48
38 -48 42 0 13 144 128 230 184 113 73 308 170 396 196 38 11 106 26 149 32
44 6 86 16 93 23 23 23 27 90 6 111 -15 15 -29 17 -94 12 -60 -4 -236 -43
-377 -83 -22 -6 -22 -6 -7 48 80 293 35 637 -110 853 -27 40 -41 82 -70 205
-19 85 -45 207 -56 270 -10 63 -31 171 -45 239 -14 68 -25 125 -25 128 0 10
145 -110 219 -181z m-384 -2191 c183 -137 295 -293 329 -459 25 -119 26 -135
13 -143 -17 -11 -161 -73 -169 -73 -3 0 -16 30 -29 68 -50 151 -154 300 -305
438 l-101 92 36 35 c45 42 119 87 146 87 11 0 47 -20 80 -45z m330 -816 c-4
-5 -34 -30 -68 -55 -49 -35 -69 -44 -103 -44 -30 0 -44 5 -48 16 -4 9 -5 18
-4 19 4 3 212 73 221 74 5 1 5 -4 2 -10z"/>
<path d="M4633 8120 c0 -36 2 -50 4 -32 2 17 2 47 0 65 -2 17 -4 3 -4 -33z"/>
<path d="M5394 8106 c-54 -54 -42 -100 34 -127 26 -9 38 -8 69 8 51 25 71 60
54 100 -25 62 -105 71 -157 19z"/>
<path d="M6276 7867 c3 -139 -55 -425 -118 -587 -42 -105 -139 -255 -170 -264
-38 -9 -13 -33 85 -81 56 -27 107 -50 112 -50 6 0 15 -6 21 -14 7 -8 16 -11
24 -6 9 5 11 4 6 -3 -4 -7 12 -21 42 -36 89 -45 357 -235 388 -275 7 -8 16
-11 24 -6 8 5 11 4 7 -2 -8 -13 57 -76 67 -66 4 5 6 1 4 -7 -2 -8 3 -14 10
-12 8 1 11 -2 7 -7 -3 -6 32 -55 78 -110 121 -146 434 -618 557 -841 29 -52
57 -102 64 -110 6 -8 17 -26 25 -40 8 -14 37 -61 64 -105 162 -263 232 -470
244 -725 10 -225 -27 -401 -120 -565 -73 -130 -221 -301 -342 -395 -22 -17
-48 -37 -58 -45 -9 -9 -61 -40 -115 -71 -53 -31 -122 -71 -152 -89 -30 -18
-96 -48 -146 -66 -90 -32 -92 -33 -98 -68 -9 -56 -7 -421 2 -421 27 0 292 178
323 217 12 14 12 16 0 8 -10 -6 -12 -4 -7 4 5 7 15 10 23 7 8 -3 12 -2 8 3 -3
5 6 18 20 29 14 11 25 27 25 36 0 19 16 21 24 4 3 -9 14 -3 31 17 15 17 24 23
20 15 -5 -8 1 -6 12 5 11 11 19 23 17 26 -2 4 4 6 14 5 9 0 16 5 15 11 -2 7 1
12 6 10 17 -4 103 74 97 90 -3 8 -2 11 3 8 12 -7 87 83 83 98 -2 7 0 9 4 5 4
-4 13 -3 21 3 16 14 18 33 1 23 -7 -4 -8 -3 -4 5 4 6 11 9 15 6 5 -2 16 4 26
15 10 11 13 20 7 20 -6 0 -9 7 -6 15 4 8 13 15 22 15 8 0 13 3 9 6 -7 7 15 33
24 28 4 -2 10 7 13 21 4 14 12 25 19 25 7 0 24 14 36 31 19 26 21 33 10 41
-11 8 -10 9 3 5 12 -4 23 5 39 31 12 20 22 43 22 50 0 6 3 12 7 12 10 0 145
267 175 344 14 39 23 77 20 85 -3 9 -3 12 1 8 9 -8 66 152 59 163 -3 5 0 10 7
12 8 3 12 22 12 49 -1 24 1 35 4 24 3 -12 12 11 24 60 10 43 16 85 14 91 -3 7
-2 14 3 16 13 5 41 143 57 280 10 92 14 191 11 323 -5 212 -6 217 -21 227 -8
6 -8 8 1 8 13 0 11 45 -2 58 -4 4 -5 1 0 -7 5 -9 4 -12 -3 -7 -7 4 -8 17 -1
39 12 41 11 56 -1 37 -7 -11 -10 4 -10 50 0 36 -7 97 -16 135 -8 39 -20 90
-25 115 -5 25 -32 108 -60 185 -28 77 -61 171 -75 208 -28 80 -153 333 -211
427 -144 235 -285 426 -305 414 -6 -4 -8 -3 -5 3 3 5 -14 32 -39 59 -25 27
-42 43 -38 35 5 -9 3 -12 -5 -7 -6 4 -9 11 -7 15 6 9 -106 123 -115 119 -10
-5 -39 24 -34 32 7 11 -102 103 -113 96 -6 -3 -16 2 -23 12 -13 16 -12 16 6 3
11 -7 7 -2 -8 13 -16 14 -33 23 -39 20 -6 -4 -8 -2 -4 4 7 12 -33 44 -45 36
-4 -2 -11 1 -15 7 -4 8 -3 9 4 5 7 -4 12 -5 12 -3 0 12 -122 87 -132 81 -7 -4
-8 -3 -4 4 3 6 -3 16 -14 22 -11 6 -20 8 -20 5 0 -3 -8 3 -19 14 -41 41 -454
261 -490 261 -3 0 -5 -28 -5 -63z m1170 -4545 c-15 -15 -15 -15 -4 10 7 15 15
23 17 17 2 -6 -4 -18 -13 -27z m-46 -52 c0 -5 -5 -10 -11 -10 -5 0 -7 5 -4 10
3 6 8 10 11 10 2 0 4 -4 4 -10z"/>
<path d="M3724 7742 c1 -12 -5 -16 -22 -14 -23 3 -83 -29 -127 -68 -11 -10
-37 -27 -57 -39 -62 -34 -218 -153 -321 -245 -266 -237 -567 -640 -713 -952
-126 -270 -214 -558 -248 -819 -37 -278 -43 -531 -16 -750 6 -56 7 -58 15 -27
5 22 13 32 26 32 24 0 25 -17 2 -23 -17 -4 -17 -5 -1 -6 10 0 24 12 33 29 9
16 12 30 8 30 -5 0 -3 4 3 8 16 11 54 78 49 85 -3 4 -2 5 1 3 3 -2 47 50 97
117 146 194 270 312 440 420 15 10 25 23 21 29 -5 7 -3 8 5 4 7 -5 35 7 66 28
30 20 60 36 65 36 6 0 8 4 5 10 -3 6 1 7 9 4 9 -3 16 -1 16 6 0 6 5 8 10 5 6
-3 10 -1 10 4 0 6 7 11 15 11 8 0 15 9 15 20 0 23 83 310 105 363 8 20 12 37
8 37 -5 0 -2 4 5 9 8 5 15 20 15 34 1 14 6 25 10 24 5 -1 23 25 40 58 18 33
35 62 40 63 4 2 7 7 7 12 0 8 25 41 63 81 9 10 17 21 17 24 0 10 157 155 220
202 128 97 208 151 271 184 34 19 69 40 77 46 7 7 24 16 38 19 13 3 24 10 24
14 0 5 13 11 30 15 21 5 35 17 46 41 9 19 23 34 31 34 8 0 12 4 9 9 -4 5 -2
11 3 13 6 1 11 24 12 51 2 26 7 47 13 47 5 0 6 3 3 6 -4 4 -14 1 -23 -7 -16
-13 -17 -11 -11 13 6 22 3 30 -15 40 -13 7 -26 12 -30 13 -5 0 -8 5 -8 10 -1
14 -152 165 -160 160 -4 -2 -7 2 -7 9 0 7 -20 42 -45 77 -44 61 -138 237 -138
257 0 5 -9 21 -21 36 -11 14 -17 30 -14 36 3 5 2 10 -4 10 -6 0 -8 6 -5 14 3
8 1 17 -4 20 -5 3 -9 -2 -8 -12z m-69 -52 c3 -5 1 -10 -4 -10 -6 0 -11 5 -11
10 0 6 2 10 4 10 3 0 8 -4 11 -10z m525 -594 c0 -3 -4 -8 -10 -11 -5 -3 -10
-1 -10 4 0 6 5 11 10 11 6 0 10 -2 10 -4z"/>
<path d="M5294 5946 c-41 -41 -43 -69 -7 -102 36 -33 70 -40 102 -21 48 29 53
95 11 137 -30 30 -67 25 -106 -14z"/>
<path d="M3762 5813 c-18 -9 -38 -25 -45 -37 -8 -14 -14 -92 -17 -220 l-5
-200 -34 -9 c-26 -6 -38 -5 -49 7 -14 14 -14 34 -3 173 13 160 15 242 7 250
-2 2 -18 5 -35 5 -59 2 -119 -78 -135 -182 -6 -35 -8 -36 -74 -52 -87 -20
-236 -92 -354 -170 -141 -93 -350 -308 -457 -468 -192 -289 -304 -617 -326
-960 -7 -96 -10 -108 -35 -135 -60 -65 -74 -131 -45 -203 42 -100 112 -158
204 -169 l51 -6 0 -41 c0 -40 13 -160 64 -591 13 -115 30 -259 36 -320 16
-144 41 -241 86 -329 101 -197 221 -308 426 -391 130 -53 205 -57 978 -53 661
4 676 4 745 26 202 63 335 166 448 348 104 166 112 204 142 664 8 135 25 326
36 425 11 99 23 199 25 221 5 40 7 42 50 53 56 14 139 88 166 148 37 84 21
157 -52 228 -37 36 -40 43 -40 95 0 78 -27 285 -51 399 -54 249 -159 477 -318
691 -196 264 -576 521 -863 584 -23 5 -28 12 -28 37 0 97 -91 188 -160 159
-39 -16 -52 -59 -34 -119 7 -25 16 -105 20 -179 l7 -135 -69 6 c-38 4 -89 7
-113 7 l-44 0 7 152 c6 120 12 158 27 187 30 56 25 69 -33 96 -62 29 -63 29
-106 8z m556 -398 c155 -46 369 -178 520 -320 156 -147 264 -292 366 -493 48
-94 62 -135 87 -250 51 -238 75 -495 47 -503 -7 -2 -102 -2 -210 1 l-198 5 24
50 c12 28 41 80 64 116 74 122 91 221 52 308 -11 24 -20 44 -20 45 0 1 27 2
61 1 52 0 63 3 80 24 27 33 24 45 -21 87 -31 29 -40 44 -40 71 0 18 -2 33 -4
33 -2 0 -28 -11 -57 -24 -29 -14 -56 -23 -61 -20 -4 3 -8 20 -8 37 0 111 -56
152 -106 77 -23 -35 -26 -46 -20 -93 l7 -53 -68 0 c-102 0 -182 -45 -260 -149
-91 -120 -153 -278 -199 -503 -3 -15 -11 -22 -22 -20 -25 5 -26 54 -3 171 22
111 62 212 128 322 76 127 93 223 53 298 -11 20 -20 39 -20 42 0 3 16 5 36 5
47 0 69 13 84 50 11 26 10 34 -6 57 -11 16 -21 44 -24 63 -4 26 -12 38 -33 48
-27 13 -32 12 -72 -17 -24 -17 -46 -31 -49 -31 -3 0 -8 17 -12 38 -18 101 -91
156 -129 98 -19 -29 -22 -70 -11 -150 8 -57 8 -58 -12 -47 -102 54 -315 -136
-397 -354 -50 -132 -85 -295 -95 -445 -5 -78 -11 -145 -14 -148 -3 -2 -12 -2
-19 1 -11 4 -17 34 -22 114 -7 121 3 202 40 321 67 214 72 288 25 377 -16 31
-30 58 -30 60 0 2 19 6 43 10 54 9 87 39 87 80 0 34 -15 55 -40 55 -11 0 -15
10 -15 33 0 29 -3 32 -29 30 -16 -1 -38 -11 -50 -21 -40 -36 -44 -35 -56 23
-8 38 -19 61 -37 75 -32 25 -41 25 -70 -2 -19 -18 -23 -32 -23 -85 0 -61 -1
-63 -25 -63 -15 0 -40 7 -56 16 -17 8 -32 14 -33 12 -37 -57 -37 -57 -13 -60
19 -3 15 -8 -28 -40 -28 -20 -64 -51 -82 -70 -41 -43 -97 -149 -112 -216 -7
-28 -16 -54 -21 -57 -4 -2 -42 13 -84 35 -62 32 -88 40 -132 40 l-55 0 26 43
c31 55 32 97 3 124 -42 38 -62 37 -85 -4 -12 -21 -24 -55 -28 -75 -4 -21 -11
-38 -15 -38 -5 0 -24 19 -43 42 -33 39 -38 42 -64 32 -15 -6 -27 -15 -27 -20
1 -5 4 -23 7 -40 6 -29 3 -32 -46 -55 -41 -19 -53 -30 -55 -50 -5 -45 27 -71
92 -77 48 -4 56 -7 50 -21 -41 -98 -46 -119 -42 -191 3 -62 13 -97 54 -200
l51 -125 -66 -6 c-36 -4 -125 -7 -197 -8 -113 -1 -133 1 -138 15 -11 27 13
234 40 344 35 148 128 417 168 489 171 302 464 572 737 677 48 19 90 34 92 34
3 0 7 -21 10 -46 3 -28 16 -62 33 -87 60 -84 115 -101 181 -54 l36 26 42 -25
c45 -26 81 -30 117 -14 16 8 54 7 132 -3 132 -17 162 -11 223 47 35 33 47 52
54 90 5 27 6 59 3 72 -7 28 -11 28 54 9z m-693 -758 c61 -61 64 -121 15 -262
-49 -140 -61 -207 -67 -377 l-6 -167 -110 0 c-60 0 -112 -3 -116 -6 -12 -13
-41 162 -47 286 -17 327 90 557 260 559 30 0 45 -7 71 -33z m718 -21 c62 -62
57 -130 -16 -248 -104 -168 -142 -279 -154 -445 l-6 -91 -106 -1 c-58 -1 -115
-2 -126 -4 -18 -2 -20 5 -23 73 -4 90 20 269 54 399 41 155 127 295 206 334
18 9 56 17 85 17 46 0 56 -4 86 -34z m-1325 -267 c49 -24 97 -83 112 -138 5
-20 14 -92 19 -161 6 -69 13 -148 17 -177 l7 -51 -36 8 c-20 4 -65 5 -100 3
l-63 -5 -64 108 c-80 135 -114 230 -105 292 11 71 82 137 154 141 8 1 35 -9
59 -20z m1881 -17 c32 -26 36 -35 39 -82 4 -67 -7 -95 -80 -198 -53 -74 -98
-157 -111 -203 -4 -13 -26 -16 -134 -17 l-130 -2 8 57 c17 120 64 258 112 325
111 154 206 193 296 120z m561 -655 c0 -21 -30 -75 -55 -97 l-27 -25 -1489 0
-1490 0 -50 52 c-27 28 -49 56 -49 62 0 14 440 18 1967 17 656 -1 1193 -5
1193 -9z m-1855 -308 c121 -5 230 -15 241 -20 12 -7 43 -9 70 -5 27 3 126 10
219 15 94 5 212 12 263 16 l92 6 0 -87 0 -87 -287 8 c-373 12 -410 12 -650 1
l-203 -8 0 92 c0 84 2 91 18 85 9 -4 116 -11 237 -16z m-433 -14 c11 -34 9
-143 -3 -151 -6 -3 -134 -3 -285 1 l-274 7 -4 32 c-3 17 -7 54 -11 81 l-5 50
287 0 c279 0 288 -1 295 -20z m2038 -62 l0 -83 -275 0 -275 0 0 83 0 82 275 0
275 0 0 -82z m-1380 -283 l0 -70 -595 0 -595 0 0 29 c0 16 -3 43 -6 60 l-6 31
488 1 c406 1 618 6 702 17 8 2 12 -18 12 -68z m505 51 c143 -4 387 -6 543 -3
l282 4 0 -60 0 -61 -392 1 c-216 1 -477 -2 -580 -7 l-188 -7 0 75 0 75 38 -4
c20 -3 154 -8 297 -13z m135 -324 l0 -72 -522 0 c-288 0 -535 -3 -550 -8 l-28
-7 0 81 0 81 53 -6 c218 -26 837 -30 837 -5 0 8 186 18 203 11 4 -2 7 -36 7
-75z m-1272 -19 l3 -68 -144 0 c-79 0 -199 3 -265 7 l-122 6 0 58 c0 46 3 58
18 62 9 3 127 4 262 3 l245 -1 3 -67z m1952 1 c0 -61 -2 -70 -16 -65 -9 3
-123 6 -255 6 l-239 0 0 65 0 65 255 0 255 0 0 -71z m-884 -189 l234 0 0 -60
0 -60 -128 0 c-71 0 -183 -3 -250 -6 l-120 -7 -4 67 c-3 73 -1 79 20 71 7 -3
119 -5 248 -5z m-438 -67 l-3 -68 -70 4 c-38 2 -294 4 -568 5 l-497 1 0 26 c0
15 -3 41 -6 58 l-6 31 413 3 c228 1 487 3 577 5 l163 2 -3 -67z m1314 48 c3
-3 4 -27 1 -53 l-6 -48 -238 0 -239 0 0 54 c0 54 0 55 33 59 46 6 441 -4 449
-12z m-1952 -306 l0 -55 -82 0 c-110 0 -128 -6 -128 -39 0 -14 8 -42 19 -61
21 -40 42 -47 139 -49 l62 -1 0 -65 0 -66 -37 7 c-58 10 -136 42 -181 72 -98
66 -199 182 -227 261 l-14 40 32 4 c18 2 119 5 225 5 l192 2 0 -55z m1882 17
c-4 -54 -46 -125 -119 -200 -54 -55 -88 -80 -153 -111 -53 -26 -98 -41 -122
-41 l-38 0 0 71 0 72 93 -5 c51 -3 102 -2 114 3 21 7 43 71 43 123 l0 26 -201
0 c-120 0 -208 -4 -220 -10 -18 -10 -19 -19 -13 -150 l7 -140 -236 0 -237 0 0
65 0 65 125 0 c125 0 125 0 135 26 6 14 10 50 10 80 l0 54 -349 0 c-400 0
-387 3 -378 -79 8 -74 27 -83 171 -79 l121 3 3 -67 3 -68 -231 0 -230 0 0 200
0 200 853 -2 852 -3 -3 -33z"/>
<path d="M4230 4515 c-24 -25 -42 -45 -39 -45 3 0 25 20 49 45 24 25 42 45 39
45 -3 0 -25 -20 -49 -45z"/>
<path d="M7665 3125 c-47 -24 -65 -52 -65 -100 0 -36 5 -48 31 -69 33 -28 98
-35 142 -15 26 12 57 57 57 84 0 32 -35 75 -75 95 -49 24 -52 24 -90 5z"/>
</g>
</svg>
